<svg width="1189" height="336" viewBox="0 0 1189 336" fill="none" xmlns="http://www.w3.org/2000/svg">
<path d="M430.713 119.873H449.557V171.055C449.557 175.256 450.132 179.001 451.281 182.29C452.43 185.54 454.134 188.294 456.393 190.553C458.692 192.812 461.525 194.536 464.894 195.725C468.262 196.874 472.186 197.449 476.664 197.449C481.102 197.449 485.006 196.874 488.374 195.725C491.783 194.536 494.616 192.812 496.875 190.553C499.174 188.294 500.897 185.54 502.047 182.29C503.196 179.001 503.771 175.256 503.771 171.055V119.873H522.615V173.314C522.615 179.417 521.584 184.965 519.524 189.959C517.463 194.952 514.471 199.232 510.547 202.799C506.624 206.366 501.809 209.12 496.102 211.062C490.435 213.004 483.956 213.975 476.664 213.975C469.372 213.975 462.873 213.004 457.166 211.062C451.499 209.12 446.704 206.366 442.78 202.799C438.857 199.232 435.865 194.952 433.804 189.959C431.743 184.965 430.713 179.417 430.713 173.314V119.873ZM583.36 119.873H632.997C639.06 119.873 644.331 120.527 648.809 121.835C653.327 123.103 657.072 124.867 660.044 127.126C663.016 129.385 665.216 132.079 666.642 135.21C668.109 138.301 668.842 141.65 668.842 145.256C668.842 151.161 666.979 156.333 663.254 160.771C667.534 163.308 670.724 166.597 672.825 170.639C674.925 174.682 675.975 179.279 675.975 184.43C675.975 188.75 675.242 192.654 673.776 196.141C672.349 199.629 670.15 202.621 667.177 205.117C664.245 207.574 660.52 209.477 656.002 210.824C651.524 212.132 646.233 212.786 640.13 212.786H583.36V119.873ZM640.249 155.54C641.874 155.54 643.459 155.6 645.004 155.719C647.66 153.182 648.987 150.289 648.987 147.04C648.987 143.671 647.66 141.075 645.004 139.252C642.389 137.39 638.545 136.458 633.472 136.458H602.204V155.54H640.249ZM640.606 196.379C645.678 196.379 649.522 195.289 652.138 193.109C654.793 190.93 656.121 187.858 656.121 183.895C656.121 179.932 654.793 176.841 652.138 174.622C649.522 172.403 645.678 171.293 640.606 171.293H602.204V196.379H640.606ZM732.857 119.873H811.978V136.399H751.701V154.946H805.082V170.461H751.701V196.319H813.226V212.786H732.857V119.873ZM871.891 119.873H919.15C926.283 119.873 932.465 120.626 937.697 122.132C942.928 123.599 947.267 125.739 950.715 128.552C954.163 131.366 956.719 134.794 958.383 138.836C960.087 142.879 960.939 147.456 960.939 152.568C960.939 156.016 960.523 159.305 959.691 162.436C958.859 165.527 957.571 168.38 955.827 170.996C954.123 173.612 951.963 175.95 949.348 178.01C946.732 180.032 943.661 181.716 940.134 183.063L960.345 212.786H937.28L919.804 186.392H919.269L890.735 186.333V212.786H871.891V119.873ZM919.625 170.045C923.192 170.045 926.303 169.629 928.958 168.796C931.653 167.964 933.892 166.795 935.675 165.289C937.498 163.783 938.846 161.96 939.718 159.82C940.629 157.641 941.085 155.223 941.085 152.568C941.085 147.377 939.302 143.374 935.735 140.56C932.168 137.707 926.798 136.28 919.625 136.28H890.735V170.045H919.625ZM1049.03 136.399H1014.73V119.873H1102.17V136.399H1067.87V212.786H1049.03V136.399ZM1157.69 119.873H1176.65V212.786H1157.69V119.873Z" fill="#422B21"/>
<path d="M93.5781 224.446H84.5713V74.3184H20.9434V74.002C20.9431 73.1731 20.2713 72.501 19.4424 72.501H9.37305C8.54428 72.5011 7.8723 73.1732 7.87207 74.002V87.5303C7.87221 88.3591 8.54422 89.0311 9.37305 89.0312H9.68555V226.892H9.37305C8.54414 226.892 7.87207 227.564 7.87207 228.393V241.92C7.87207 242.749 8.54414 243.421 9.37305 243.421H19.4424C20.2714 243.421 20.9434 242.749 20.9434 241.92V241.603H89.1006L240.396 242.467L240.371 246.971L240.346 251.474L93.5781 250.635V311.788H93.2686C92.4395 311.788 91.7676 312.46 91.7676 313.289V326.816C91.7676 327.645 92.4395 328.318 93.2686 328.318H103.338C104.167 328.318 104.839 327.645 104.839 326.816V326.517H249.863V326.827C249.863 327.656 250.535 328.328 251.364 328.328H261.434C262.263 328.328 262.935 327.656 262.935 326.827V313.3C262.935 312.471 262.263 311.799 261.434 311.799H261.117V246.96L261.518 74.3428H115.129V65.3359H336.185C338.931 65.3359 341.64 65.9702 344.101 67.1895L344.922 67.5967C347.48 68.8645 349.616 70.8475 351.068 73.3057C352.411 75.577 353.118 78.1674 353.118 80.8057V233.834C353.118 236.191 352.652 238.525 351.747 240.701L351.653 240.928C350.273 244.246 347.884 247.046 344.824 248.931C342.125 250.593 339.016 251.474 335.846 251.474H270.124V316.097C270.124 318.806 269.548 321.485 268.436 323.955C266.655 327.907 263.584 331.138 259.728 333.117L259.385 333.293C256.527 334.759 253.361 335.523 250.149 335.523H101.07C98.4587 335.523 95.8877 334.876 93.5879 333.639C90.6588 332.062 88.3024 329.601 86.8545 326.606L86.4395 325.748C85.2103 323.206 84.5713 320.418 84.5713 317.594V250.609H17.7305C16.3748 250.609 15.0231 250.457 13.7012 250.156L12.6064 249.908C8.79798 249.041 5.4638 246.753 3.28516 243.511C1.5865 240.983 0.679754 238.006 0.679688 234.961V82.2979C0.679688 80.1707 1.07694 78.0622 1.85156 76.0811L1.89062 75.9824C3.33466 72.2893 6.03962 69.2266 9.52637 67.3379C11.9805 66.0085 14.7275 65.3116 17.5186 65.3115H84.5713V2.66895H93.5781V224.446ZM334.337 72.542C333.508 72.5422 332.836 73.215 332.836 74.0439V74.3428H270.524L270.135 242.467H332.836V242.777C332.836 243.606 333.508 244.278 334.337 244.278H344.406C345.235 244.278 345.907 243.606 345.907 242.777V229.249C345.907 228.42 345.235 227.748 344.406 227.748H344.112V81.8262H344.406C345.235 81.8262 345.907 81.1542 345.907 80.3252V74.0439C345.907 73.2149 345.235 72.542 344.406 72.542H334.337ZM269.379 44.7334H260.372V2.87305H269.379V44.7334Z" fill="#422B21"/>
<path d="M269.326 249.662H269.323C268.77 249.662 268.321 250.111 268.321 250.665V251.262C268.321 251.283 268.323 251.303 268.324 251.324H266.984V249.04H269.326V249.662Z" fill="#422B21"/>
<path d="M92.8496 248.826C92.8219 248.824 92.7939 248.822 92.7656 248.822C92.212 248.822 91.7637 249.272 91.7637 249.825V250.302H90.5078V248.018H92.8496V248.826Z" fill="#422B21"/>
<path d="M87.6309 250.301H86.376V249.803C86.3758 249.25 85.9265 248.801 85.373 248.801C85.3447 248.801 85.3168 248.803 85.2891 248.805V248.017H87.6309V250.301Z" fill="#422B21"/>
<path d="M87.6309 74.0132H86.376V73.5161C86.376 72.9625 85.9266 72.5132 85.373 72.5132C85.3448 72.5132 85.3168 72.5148 85.2891 72.5171V71.729H87.6309V74.0132Z" fill="#422B21"/>
<path d="M264.576 74.0342H263.32V73.5371C263.32 72.9836 262.872 72.5343 262.318 72.5342C262.29 72.5342 262.262 72.5358 262.234 72.5381V71.75H264.576V74.0342Z" fill="#422B21"/>
<path d="M84.8799 68.3799V67.123H85.377C85.9305 67.123 86.3797 66.6746 86.3799 66.1211C86.3799 66.0932 86.3782 66.0654 86.376 66.0381H87.1641V68.3799H84.8799Z" fill="#422B21"/>
<path d="M270.206 71.2803V72.5371H269.709C269.156 72.5371 268.706 72.9857 268.706 73.5391C268.706 73.5669 268.708 73.5948 268.71 73.6221H267.922V71.2803H270.206Z" fill="#422B21"/>
<path d="M268.317 242.548C268.312 242.589 268.31 242.631 268.31 242.673V243.272C268.31 243.826 268.758 244.274 269.312 244.274C269.316 244.274 269.321 244.273 269.326 244.273V244.833H266.984V242.548H268.317Z" fill="#422B21"/>
<path d="M268.317 242.548C268.312 242.589 268.31 242.631 268.31 242.673V243.272C268.31 243.826 268.758 244.274 269.312 244.274C269.316 244.274 269.321 244.273 269.326 244.273V244.833H266.984V242.548H268.317Z" fill="#422B21"/>
<circle cx="89.0757" cy="2.74076" r="2.69291" fill="#422B21"/>
<circle cx="115.115" cy="69.8404" r="2.69291" fill="#422B21"/>
<circle cx="264.88" cy="44.7154" r="2.69291" fill="#422B21"/>
<circle cx="264.88" cy="2.74076" r="2.69291" fill="#422B21"/>
<circle cx="89.0757" cy="224.48" r="2.69291" fill="#422B21"/>
<circle cx="240.326" cy="246.974" r="2.69291" fill="#422B21"/>
</svg>
