<svg width="1189" height="336" viewBox="0 0 1189 336" fill="none" xmlns="http://www.w3.org/2000/svg">
<path d="M430.713 119.826H449.557V171.008C449.557 175.208 450.132 178.953 451.281 182.243C452.43 185.492 454.134 188.247 456.393 190.505C458.692 192.764 461.525 194.488 464.894 195.677C468.262 196.826 472.186 197.401 476.664 197.401C481.102 197.401 485.006 196.826 488.374 195.677C491.783 194.488 494.616 192.764 496.875 190.505C499.174 188.247 500.897 185.492 502.047 182.243C503.196 178.953 503.771 175.208 503.771 171.008V119.826H522.615V173.266C522.615 179.369 521.584 184.918 519.524 189.911C517.463 194.904 514.471 199.184 510.547 202.751C506.624 206.318 501.809 209.072 496.102 211.014C490.435 212.956 483.956 213.927 476.664 213.927C469.372 213.927 462.873 212.956 457.166 211.014C451.499 209.072 446.704 206.318 442.78 202.751C438.857 199.184 435.865 194.904 433.804 189.911C431.743 184.918 430.713 179.369 430.713 173.266V119.826ZM583.36 119.826H632.997C639.06 119.826 644.331 120.479 648.809 121.787C653.327 123.055 657.072 124.819 660.044 127.078C663.016 129.337 665.216 132.032 666.642 135.162C668.109 138.253 668.842 141.602 668.842 145.208C668.842 151.113 666.979 156.285 663.254 160.724C667.534 163.26 670.724 166.549 672.825 170.591C674.925 174.634 675.975 179.231 675.975 184.383C675.975 188.702 675.242 192.606 673.776 196.093C672.349 199.581 670.15 202.573 667.177 205.069C664.245 207.526 660.52 209.429 656.002 210.776C651.524 212.084 646.233 212.738 640.13 212.738H583.36V119.826ZM640.249 155.492C641.874 155.492 643.459 155.552 645.004 155.671C647.66 153.134 648.987 150.241 648.987 146.992C648.987 143.623 647.66 141.028 645.004 139.205C642.389 137.342 638.545 136.411 633.472 136.411H602.204V155.492H640.249ZM640.606 196.331C645.678 196.331 649.522 195.241 652.138 193.062C654.793 190.882 656.121 187.811 656.121 183.848C656.121 179.885 654.793 176.793 652.138 174.574C649.522 172.355 645.678 171.245 640.606 171.245H602.204V196.331H640.606ZM732.857 119.826H811.978V136.351H751.701V154.898H805.082V170.413H751.701V196.272H813.226V212.738H732.857V119.826ZM871.891 119.826H919.15C926.283 119.826 932.465 120.578 937.697 122.084C942.928 123.551 947.267 125.691 950.715 128.504C954.163 131.318 956.719 134.746 958.383 138.788C960.087 142.831 960.939 147.408 960.939 152.52C960.939 155.968 960.523 159.257 959.691 162.388C958.859 165.479 957.571 168.333 955.827 170.948C954.123 173.564 951.963 175.902 949.348 177.963C946.732 179.984 943.661 181.668 940.134 183.015L960.345 212.738H937.28L919.804 186.344H919.269L890.735 186.285V212.738H871.891V119.826ZM919.625 169.997C923.192 169.997 926.303 169.581 928.958 168.749C931.653 167.916 933.892 166.747 935.675 165.241C937.498 163.735 938.846 161.912 939.718 159.772C940.629 157.593 941.085 155.175 941.085 152.52C941.085 147.329 939.302 143.326 935.735 140.512C932.168 137.659 926.798 136.232 919.625 136.232H890.735V169.997H919.625ZM1049.03 136.351H1014.73V119.826H1102.17V136.351H1067.87V212.738H1049.03V136.351ZM1157.69 119.826H1176.65V212.738H1157.69V119.826Z" fill="white"/>
<path d="M93.5781 224.398H84.5713V74.2705H20.9434V73.9541C20.9431 73.1253 20.2713 72.4531 19.4424 72.4531H9.37305C8.54428 72.4533 7.8723 73.1254 7.87207 73.9541V87.4824C7.87221 88.3113 8.54422 88.9832 9.37305 88.9834H9.68555V226.844H9.37305C8.54414 226.844 7.87207 227.516 7.87207 228.345V241.872C7.87207 242.701 8.54414 243.373 9.37305 243.373H19.4424C20.2714 243.373 20.9434 242.701 20.9434 241.872V241.555H89.1006L240.396 242.419L240.371 246.923L240.346 251.426L93.5781 250.587V311.74H93.2686C92.4395 311.74 91.7676 312.412 91.7676 313.241V326.769C91.7676 327.598 92.4395 328.271 93.2686 328.271H103.338C104.167 328.27 104.839 327.597 104.839 326.769V326.469H249.863V326.779C249.863 327.608 250.535 328.28 251.364 328.28H261.434C262.263 328.28 262.935 327.608 262.935 326.779V313.252C262.935 312.423 262.263 311.751 261.434 311.751H261.117V246.912L261.518 74.2949H115.129V65.2881H336.185C338.931 65.2881 341.64 65.9224 344.101 67.1416L344.922 67.5488C347.48 68.8166 349.616 70.7997 351.068 73.2578C352.411 75.5292 353.118 78.1196 353.118 80.7578V233.786C353.118 236.143 352.652 238.477 351.747 240.653L351.653 240.88C350.273 244.198 347.884 246.998 344.824 248.883C342.125 250.546 339.016 251.426 335.846 251.426H270.124V316.049C270.124 318.758 269.548 321.437 268.436 323.907C266.655 327.86 263.584 331.09 259.728 333.069L259.385 333.245C256.527 334.711 253.361 335.476 250.149 335.476H101.07C98.4587 335.476 95.8877 334.828 93.5879 333.591C90.6588 332.015 88.3024 329.553 86.8545 326.559L86.4395 325.7C85.2103 323.158 84.5713 320.37 84.5713 317.546V250.562H17.7305C16.3748 250.562 15.0231 250.409 13.7012 250.108L12.6064 249.86C8.79798 248.994 5.4638 246.705 3.28516 243.463C1.5865 240.935 0.679754 237.959 0.679688 234.913V82.25C0.679688 80.1228 1.07694 78.0143 1.85156 76.0332L1.89062 75.9346C3.33466 72.2414 6.03962 69.1787 9.52637 67.29C11.9805 65.9607 14.7275 65.2637 17.5186 65.2637H84.5713V2.62109H93.5781V224.398ZM334.337 72.4941C333.508 72.4943 332.836 73.1672 332.836 73.9961V74.2949H270.524L270.135 242.419H332.836V242.729C332.836 243.558 333.508 244.23 334.337 244.23H344.406C345.235 244.23 345.907 243.558 345.907 242.729V229.201C345.907 228.372 345.235 227.7 344.406 227.7H344.112V81.7783H344.406C345.235 81.7783 345.907 81.1064 345.907 80.2773V73.9961C345.907 73.167 345.235 72.4941 344.406 72.4941H334.337ZM269.379 44.6855H260.372V2.8252H269.379V44.6855Z" fill="white"/>
<path d="M269.326 249.614H269.323C268.77 249.614 268.321 250.063 268.321 250.617V251.214C268.321 251.235 268.323 251.256 268.324 251.276H266.984V248.992H269.326V249.614Z" fill="white"/>
<path d="M92.8496 248.778C92.8219 248.776 92.7939 248.774 92.7656 248.774C92.212 248.774 91.7637 249.224 91.7637 249.777V250.254H90.5078V247.97H92.8496V248.778Z" fill="white"/>
<path d="M87.6309 250.253H86.376V249.755C86.3758 249.202 85.9265 248.753 85.373 248.753C85.3447 248.753 85.3168 248.755 85.2891 248.757V247.969H87.6309V250.253Z" fill="white"/>
<path d="M87.6309 73.9653H86.376V73.4683C86.376 72.9147 85.9266 72.4653 85.373 72.4653C85.3448 72.4653 85.3168 72.4669 85.2891 72.4692V71.6812H87.6309V73.9653Z" fill="white"/>
<path d="M264.576 73.9863H263.32V73.4893C263.32 72.9357 262.872 72.4865 262.318 72.4863C262.29 72.4863 262.262 72.4879 262.234 72.4902V71.7021H264.576V73.9863Z" fill="white"/>
<path d="M84.8799 68.332V67.0752H85.377C85.9305 67.0752 86.3797 66.6267 86.3799 66.0732C86.3799 66.0454 86.3782 66.0175 86.376 65.9902H87.1641V68.332H84.8799Z" fill="white"/>
<path d="M270.206 71.2324V72.4893H269.709C269.156 72.4893 268.706 72.9378 268.706 73.4912C268.706 73.519 268.708 73.547 268.71 73.5742H267.922V71.2324H270.206Z" fill="white"/>
<path d="M268.317 242.5C268.312 242.541 268.31 242.583 268.31 242.625V243.224C268.31 243.778 268.758 244.226 269.312 244.226C269.316 244.226 269.321 244.225 269.326 244.225V244.785H266.984V242.5H268.317Z" fill="white"/>
<path d="M268.317 242.5C268.312 242.541 268.31 242.583 268.31 242.625V243.224C268.31 243.778 268.758 244.226 269.312 244.226C269.316 244.226 269.321 244.225 269.326 244.225V244.785H266.984V242.5H268.317Z" fill="white"/>
<circle cx="89.0757" cy="2.69291" r="2.69291" fill="white"/>
<circle cx="115.115" cy="69.7925" r="2.69291" fill="white"/>
<circle cx="264.88" cy="44.6675" r="2.69291" fill="white"/>
<circle cx="264.88" cy="2.69291" r="2.69291" fill="white"/>
<circle cx="89.0757" cy="224.433" r="2.69291" fill="white"/>
<circle cx="240.326" cy="246.926" r="2.69291" fill="white"/>
</svg>
